<?xml version="1.0" encoding="UTF-8"?>
<svg xmlns="http://www.w3.org/2000/svg" viewBox="0 0 128 128">
  <defs>
    <style>
      .cls-1 {
        fill: none;
      }

      .cls-2 {
        fill: #231f20;
      }

      .cls-3 {
        fill: #fff;
      }
    </style>
  </defs>
  <g id="Layer_2" data-name="Layer 2">
    <rect class="cls-2" width="128" height="128"/>
  </g>
  <g id="Layer_1" data-name="Layer 1">
    <g>
      <rect class="cls-1" x="27.99" y="10.41" width="72.01" height="100.2"/>
      <path class="cls-3" d="M33.65,19.08h24.67v6.65h-8.32v29.38h8.32v6.62h-24.67v-6.62h8.12v-29.38h-8.12v-6.65Z"/>
      <path class="cls-3" d="M97.46,48.38c-.14,2.15-.6,4.08-1.39,5.8s-1.85,3.18-3.18,4.39-2.91,2.14-4.75,2.8-3.87.98-6.09.98c-2.52,0-4.76-.46-6.71-1.39s-3.59-2.23-4.92-3.9-2.34-3.68-3.05-6.02-1.05-4.92-1.05-7.73v-5.74c0-2.83.37-5.42,1.11-7.76s1.8-4.35,3.16-6.04c1.37-1.68,3.02-2.98,4.97-3.91,1.94-.93,4.13-1.39,6.55-1.39s4.43.33,6.25,1c1.83.66,3.38,1.61,4.67,2.84s2.3,2.73,3.05,4.51c.74,1.78,1.21,3.78,1.41,6.01h-8.2c-.08-1.27-.27-2.38-.57-3.34-.3-.96-.74-1.75-1.32-2.39-.58-.63-1.3-1.11-2.17-1.44s-1.91-.48-3.12-.48-2.37.27-3.31.82c-.94.55-1.71,1.35-2.33,2.4s-1.07,2.35-1.36,3.88c-.29,1.53-.44,3.28-.44,5.23v5.8c0,4.2.59,7.3,1.77,9.32s3.05,3.02,5.61,3.02c2.15,0,3.85-.57,5.1-1.71s1.94-2.99,2.08-5.55h8.23Z"/>
      <path class="cls-3" d="M52.81,100.83h-12.8l-2.52,8.91h-8.67l13.97-42.66h7.47l13.71,42.66h-8.67l-2.49-8.91ZM42.03,93.83h8.85l-4.37-15.7-4.48,15.7Z"/>
      <path class="cls-3" d="M89.99,98.6c0-.76-.13-1.47-.4-2.14s-.71-1.28-1.35-1.86-1.46-1.1-2.49-1.58-2.3-.92-3.82-1.33c-1.86-.51-3.63-1.14-5.32-1.9s-3.18-1.68-4.47-2.75-2.32-2.32-3.09-3.75-1.16-3.07-1.16-4.92.38-3.43,1.14-4.89,1.82-2.71,3.16-3.75,2.94-1.83,4.78-2.39,3.83-.83,5.98-.83,4.26.32,6.11.97,3.43,1.55,4.76,2.71,2.36,2.54,3.11,4.15,1.11,3.36,1.11,5.27h-8.03c-.04-.96-.21-1.84-.51-2.64s-.75-1.49-1.35-2.07-1.34-1.03-2.23-1.35-1.93-.48-3.12-.48c-1.09,0-2.07.13-2.92.4s-1.57.63-2.15,1.11-1.03,1.04-1.33,1.7-.45,1.36-.45,2.12c0,.8.2,1.52.6,2.17s.98,1.23,1.74,1.74,1.68.99,2.77,1.42,2.31.83,3.68,1.2c1.95.57,3.75,1.26,5.39,2.08s3.05,1.79,4.23,2.92,2.1,2.4,2.75,3.84.98,3.03.98,4.79c0,1.88-.38,3.54-1.13,5s-1.79,2.69-3.12,3.69-2.91,1.77-4.75,2.29-3.84.78-6.01.78c-1.35,0-2.69-.12-4.03-.37s-2.62-.62-3.84-1.13-2.36-1.14-3.41-1.9-1.97-1.65-2.74-2.67-1.38-2.17-1.82-3.46-.66-2.71-.66-4.28h8.09c.04,1.29.26,2.39.67,3.31s.98,1.67,1.71,2.26,1.61,1.02,2.64,1.29,2.15.41,3.38.41c1.09,0,2.07-.13,2.92-.38s1.57-.61,2.15-1.05,1.04-.99,1.35-1.63.47-1.33.47-2.09Z"/>
    </g>
  </g>
</svg>